<svg width="63" height="62" viewBox="0 0 63 62" fill="none" xmlns="http://www.w3.org/2000/svg">
<path d="M57.5847 0.000433469H4.7537C4.15983 -0.00776474 3.57015 0.100399 3.01834 0.318749C2.46653 0.537098 1.96339 0.861355 1.53767 1.273C1.11195 1.68465 0.771979 2.17562 0.537172 2.71789C0.302366 3.26015 0.177324 3.84307 0.169189 4.43337V57.5666C0.177324 58.1569 0.302366 58.7399 0.537172 59.2821C0.771979 59.8244 1.11195 60.3153 1.53767 60.727C1.96339 61.1386 2.46653 61.4629 3.01834 61.6813C3.57015 61.8996 4.15983 62.0078 4.7537 61.9996H57.5847C58.1785 62.0078 58.7682 61.8996 59.32 61.6813C59.8719 61.4629 60.375 61.1386 60.8007 60.727C61.2264 60.3153 61.5664 59.8244 61.8012 59.2821C62.036 58.7399 62.1611 58.1569 62.1692 57.5666V4.43337C62.1611 3.84307 62.036 3.26015 61.8012 2.71789C61.5664 2.17562 61.2264 1.68465 60.8007 1.273C60.375 0.861355 59.8719 0.537098 59.32 0.318749C58.7682 0.100399 58.1785 -0.00776474 57.5847 0.000433469V0.000433469ZM18.975 51.8937H9.61889V23.9941H18.975V51.8937ZM14.297 20.0882C13.0066 20.0882 11.7691 19.5787 10.8567 18.6717C9.94435 17.7648 9.43177 16.5348 9.43177 15.2522C9.43177 13.9697 9.94435 12.7396 10.8567 11.8327C11.7691 10.9258 13.0066 10.4163 14.297 10.4163C14.9821 10.3391 15.676 10.4065 16.3331 10.6143C16.9902 10.8221 17.5957 11.1655 18.1101 11.6221C18.6244 12.0786 19.0359 12.638 19.3177 13.2635C19.5994 13.8891 19.7451 14.5668 19.7451 15.2522C19.7451 15.9376 19.5994 16.6153 19.3177 17.2409C19.0359 17.8665 18.6244 18.4259 18.1101 18.8824C17.5957 19.3389 16.9902 19.6823 16.3331 19.8901C15.676 20.0979 14.9821 20.1654 14.297 20.0882V20.0882ZM52.7195 51.8937H43.3634V36.9209C43.3634 33.17 42.0223 30.721 38.6229 30.721C37.5709 30.7287 36.5464 31.0567 35.6877 31.6608C34.8289 32.265 34.1771 33.1163 33.8201 34.1C33.576 34.8286 33.4703 35.5959 33.5082 36.3629V51.8627H24.1521C24.1521 51.8627 24.1521 26.5051 24.1521 23.9631H33.5082V27.9C34.3582 26.4341 35.5944 25.2264 37.0836 24.407C38.5729 23.5876 40.2589 23.1877 41.9599 23.2501C48.1974 23.2501 52.7195 27.2491 52.7195 35.8359V51.8937Z" fill="#D63684"/>
</svg>
