<?xml version="1.0" encoding="UTF-8"?>
<svg id="Layer_2" data-name="Layer 2" xmlns="http://www.w3.org/2000/svg" viewBox="0 0 579.48 593.2">
  <defs>
    <style>
      .cls-1 {
        fill: #d63684;
      }

      .cls-1, .cls-2 {
        stroke-width: 0px;
      }

      .cls-2 {
        fill: #fff;
      }
    </style>
  </defs>
  <g id="Layer_2-2" data-name="Layer 2">
    <g>
      <path class="cls-2" d="m469.6,342.89h28.44v-42.51c-.07-61.31-24.04-118.93-67.48-162.25-38.53-38.41-88.3-61.52-141.9-66.29-1.22-.11-288.66-.93-288.66-.93v150.24h72.55l.31-77.38h143.26l.21,100.89.03,12.4.48,228.43c-40.68-6.45-76.75-27.49-102.65-57.43-20.53-23.73-34.67-53.03-39.66-85.11h0c-1.3-8.4-1.98-16.99-1.98-25.71v-23.41H0v23.41c0,50.96,15.66,99.53,44.7,140.25,2.65,3.71,5.41,7.36,8.27,10.93,5.68,7.09,11.79,13.9,18.32,20.41,39.66,39.53,90.58,63.75,145.55,69.65,8.75.94,17.61,1.42,26.54,1.42h254.66l-107.81-175.11-61.8,38.01,39.83,64.76h-78.87l-.31-144.67h180.52Zm-180.67-72.87l-.27-126.24h0c63.28,8.3,117.13,54.11,133.82,114.7,1.04,3.79,1.94,7.64,2.69,11.54h-136.24Z"/>
      <path class="cls-1" d="m267.95,81.5c-1.64-3.4-3.43-6.72-5.37-9.96-11.44-19.2-27.92-35.56-48.2-47.73C189.58,8.92,159.49.69,127.37,0c-2.47-.07-4.62,1.72-5.04,4.16-.2,1.16-4.59,26.85-11.43,66.92,3.36.01,6.75.01,10.16.02,5.17-30.3,8.89-52.13,10.4-60.96,51.8,2.23,95.06,24.69,119.31,61.34,3.03,4.57,5.76,9.37,8.17,14.37,20.57,42.62,13.72,91.58-18.79,134.33-7.16,9.41-15.2,17.52-23.82,24.48-28.45,22.99-63.2,33.41-93.24,36.15-1.4-7.99-10.04-35.57-29.62-48.35,5.33-31.12,10.47-61.19,15.17-88.69h-10.16c-4.47,26.19-9.33,54.65-14.38,84.12-.05-.02-.11-.04-.16-.05-15.93-5.28-32.46-2.62-42.12,6.76-7.23,7.02-9.61,16.91-6.56,27.14,3.62,12.1,17.53,21.57,38.52,26.41-.41,2.4-.82,4.79-1.23,7.19-9.73,56.77-19.49,113.65-27.85,162.15-11.33,65.7-20.07,116.01-22.65,129.78-.51,2.72,1.28,5.33,3.99,5.84,2.71.5,5.33-1.28,5.84-4,2.46-13.14,10.52-59.47,21.09-120.69,6.48-37.61,13.91-80.85,21.56-125.47h0c3.01-17.53,6.05-35.26,9.08-52.95,9.79,1.47,20.27,2,31.09,1.55.85,5.55,1.66,11.2,2.45,16.73,3.79,26.66,7.71,54.23,17.62,75.99,11.65,25.57,29.94,39.25,55.9,41.83,2.9.29,5.81.43,8.73.43,5.74,0,11.51-.56,17.31-1.67l-.02-10.21c-8.44,1.82-16.79,2.32-25.03,1.5-49.78-4.94-57.32-57.98-64.61-109.27-.76-5.29-1.52-10.68-2.34-16.02,31.13-2.98,64.21-13.92,91.65-33.8,11.84-8.58,22.62-18.83,31.75-30.83,17.78-23.38,28.37-48.39,31.47-74.35,2.9-24.27-1.12-48.6-11.63-70.38Zm-192.47,196.78c-16.85-3.97-28.14-11.05-30.64-19.41-2.01-6.72-.65-12.64,3.94-17.09,4.5-4.37,11.26-6.65,18.81-6.65,4.24,0,8.73.72,13.2,2.2.54.18,1.07.37,1.6.58-2.28,13.32-4.59,26.83-6.91,40.37Zm9.82,1.85c2.11-12.31,4.21-24.55,6.28-36.68,13.25,10.99,19.88,30.81,21.45,38-10.14.37-19.55-.14-27.73-1.32Zm490.06-11.61c-2.73-.48-5.32,1.33-5.81,4.04-1.06,5.92-5.89,27.16-23.48,51.97-11.81,16.65-27.16,27.83-43.24,31.48-14.46,3.29-25.01-2.07-33.23-13.12-11.22-15.04-18.12-40.64-24.75-69.28-2.16-9.33-4.2-18.14-6.41-25.51-.56-1.87-2.16-3.24-4.09-3.51-1.93-.27-3.84.6-4.9,2.24-2.32,3.6-4.64,7.49-6.97,11.65-2.04,3.65-4.07,7.5-6.11,11.54-10.23,20.27-20.43,45.29-30.43,72.87-6.5,17.9-12.9,36.87-19.17,56.33-6.05,18.76-17.07,54.18-17.57,55.85.38-1.85,6.64-33.82,10.25-51.35,4.27-20.65,8.51-41.27,12.53-60.83,5.62-27.31,10.8-52.54,14.96-72.87,5.55-27.06,9.3-45.45,9.94-48.55.5-2.46-.91-4.92-3.29-5.73-2.38-.81-4.99.27-6.1,2.53-9.07,18.49-18.17,35.75-27.26,51.75-16.09,28.27-32.18,52.61-48.2,72.87-7.65,9.68-15.28,18.42-22.89,26.22l.03,14.04c1.06-1.01,2.11-2.03,3.17-3.07,10.74-10.58,21.54-22.99,32.34-37.19,15.66-20.58,31.36-44.91,47.01-72.87,2.69-4.79,5.37-9.69,8.05-14.69-.93,4.55-1.94,9.47-3.01,14.69-4.19,20.45-9.36,45.66-14.96,72.87-4.5,21.87-9.27,45.02-14.02,68.03-2.25,10.88-4.49,21.74-6.7,32.4-3.17,15.28-6.26,30.17-9.2,44.24h18.31c1.94-6.57,3.91-13.2,5.9-19.84,7.67-25.67,15.66-51.65,23.84-76.58,5.48-16.69,11.05-32.9,16.66-48.25,11.65-31.84,23.53-59.94,35.31-80.72,1.07,4.33,2.13,8.94,3.23,13.69,4.93,21.28,10.51,45.39,20.4,63.52.66,1.21,1.33,2.38,2.02,3.51,11.93,19.64,27.9,27.33,47.52,22.87,18.49-4.2,35.95-16.78,49.18-35.44,18.8-26.51,24.02-49.56,25.18-55.99.48-2.72-1.33-5.32-4.04-5.81Zm-264.81,318.37c-.71,2.64.83,5.36,3.46,6.11.45.13.92.2,1.37.2,2.15,0,4.13-1.4,4.79-3.56,2.81-9.29,5.77-19.27,8.84-29.74h-12.41c-3.05,14.2-5.19,23.82-6.05,26.99Z"/>
    </g>
  </g>
</svg>