<?xml version="1.0" encoding="UTF-8"?>
<svg id="Layer_2" data-name="Layer 2" xmlns="http://www.w3.org/2000/svg" viewBox="0 0 251.08 241.58">
  <defs>
    <style>
      .cls-1 {
        fill: #d73685;
        stroke-width: 0px;
      }
    </style>
  </defs>
  <g id="Layer_2-2" data-name="Layer 2">
    <path class="cls-1" d="m251.08,120.79c0,13.58-7.33,25.19-19.54,30.99L49.06,238.22c-4.73,2.29-9.6,3.36-14.64,3.36-9.79,0-19.09-4.28-25.81-11.62-6.41-7.33-9.46-16.8-8.4-26.57l6.25-55.88h113.76c14.67,0,26.73-12.06,26.73-26.73s-12.06-26.73-26.73-26.73H6.45L.21,38.18c-1.06-9.94,1.99-19.23,8.4-26.57C15.32,4.14,24.62,0,34.42,0c5.04,0,9.91,1.06,14.64,3.36l182.48,86.44c12.21,5.8,19.54,17.41,19.54,30.99"/>
  </g>
</svg>