<?xml version="1.0" encoding="UTF-8"?>
<svg id="Layer_2" data-name="Layer 2" xmlns="http://www.w3.org/2000/svg" viewBox="0 0 253.43 253.5">
  <defs>
    <style>
      .cls-1 {
        fill: #d73685;
        stroke-width: 0px;
      }
    </style>
  </defs>
  <g id="Layer_2-2" data-name="Layer 2">
    <path class="cls-1" d="m251.63,67.35c-22.97,90.65-93.8,161.29-184.42,184.42-4.57,1.25-8.97,1.73-13.39,1.73-32.24,0-53.82-31.3-53.82-60.73v-15.76c0-11.95,9.91-19.49,19.21-20.3,14-1.4,27.7-4.71,40.76-9.91.47-.14.95-.14,1.42-.14,1.09,0,2.03.31,2.82,1.09l15.76,15.73,6.29,6.29,7.85-4.4c29.9-16.68,54.46-41.37,71.3-71.28l4.23-7.71-22.02-22.02c-1.11-1.28-1.42-2.84-.95-4.26,5.2-13.06,8.49-26.76,9.91-40.76.95-9.44,8.35-19.35,20.46-19.35h15.73c19.52,0,38.73,9.27,50.2,23.92,6.77,8.82,13.86,23.44,8.66,43.43"/>
  </g>
</svg>